<svg width="25" height="24" viewBox="0 0 25 24" fill="none" xmlns="http://www.w3.org/2000/svg">
  <path
    d="M8.39502 12C8.39502 12.2652 8.50038 12.5196 8.68791 12.7071C8.87545 12.8946 9.1298 13 9.39502 13C9.66024 13 9.91459 12.8946 10.1021 12.7071C10.2897 12.5196 10.395 12.2652 10.395 12C10.395 11.7348 10.2897 11.4804 10.1021 11.2929C9.91459 11.1054 9.66024 11 9.39502 11C9.1298 11 8.87545 11.1054 8.68791 11.2929C8.50038 11.4804 8.39502 11.7348 8.39502 12Z"
    stroke="currentColor" stroke-width="2" stroke-linecap="round" stroke-linejoin="round" />
  <path
    d="M14.395 12C14.395 12.2652 14.5004 12.5196 14.6879 12.7071C14.8754 12.8946 15.1298 13 15.395 13C15.6602 13 15.9146 12.8946 16.1021 12.7071C16.2897 12.5196 16.395 12.2652 16.395 12C16.395 11.7348 16.2897 11.4804 16.1021 11.2929C15.9146 11.1054 15.6602 11 15.395 11C15.1298 11 14.8754 11.1054 14.6879 11.2929C14.5004 11.4804 14.395 11.7348 14.395 12Z"
    stroke="currentColor" stroke-width="2" stroke-linecap="round" stroke-linejoin="round" />
  <path
    d="M8.89513 17C8.89513 18 7.53913 20 7.06313 20C5.63413 20 4.36513 18.333 3.73013 17C3.09513 15.333 3.25413 11.167 5.15813 5.5C6.54613 4.485 7.94013 4.16 9.39513 4L10.3701 5.923C11.7112 5.6915 13.082 5.6915 14.4231 5.923L15.3951 4C16.8951 4.16 18.4381 4.485 19.8951 5.5C21.8951 11.167 22.0621 15.333 21.3951 17C20.7281 18.333 19.3951 20 17.8951 20C17.3951 20 15.8951 18 15.8951 17"
    stroke="currentColor" stroke-width="2" stroke-linecap="round" stroke-linejoin="round" />
  <path d="M7.39502 16.5C10.895 17.5 13.895 17.5 17.395 16.5" stroke="currentColor" stroke-width="2"
    stroke-linecap="round" stroke-linejoin="round" />
</svg>