<svg width="20" height="20" viewBox="0 0 20 20" fill="none" xmlns="http://www.w3.org/2000/svg">
  <path
    d="M7.39502 17C3.09502 18.4 3.09502 14.5 1.39502 14M13.395 19V15.5C13.395 14.5 13.495 14.1 12.895 13.5C15.695 13.2 18.395 12.1 18.395 7.50001C18.3938 6.30498 17.9276 5.15732 17.095 4.30001C17.4855 3.26198 17.4495 2.11164 16.995 1.10001C16.995 1.10001 15.895 0.800012 13.495 2.40001C11.4623 1.8706 9.32778 1.8706 7.29502 2.40001C4.89502 0.800012 3.79502 1.10001 3.79502 1.10001C3.3405 2.11164 3.30455 3.26198 3.69502 4.30001C2.86247 5.15732 2.39624 6.30498 2.39502 7.50001C2.39502 12.1 5.09502 13.2 7.89502 13.5C7.29502 14.1 7.29502 14.7 7.39502 15.5V19"
    stroke="currentColor" stroke-width="2" stroke-linecap="round" stroke-linejoin="round" />
</svg>