<svg width="25" height="24" viewBox="0 0 25 24" fill="none" xmlns="http://www.w3.org/2000/svg">
  <path
    d="M22.395 4.01001C21.395 4.50001 20.415 4.69901 19.395 5.00001C18.274 3.73501 16.612 3.66501 15.015 4.26301C13.418 4.86101 12.372 6.32301 12.395 8.00001V9.00001C9.15002 9.08301 6.26002 7.60501 4.39502 5.00001C4.39502 5.00001 0.213019 12.433 8.39502 16C6.52302 17.247 4.65602 18.088 2.39502 18C5.70302 19.803 9.30802 20.423 12.429 19.517C16.009 18.477 18.951 15.794 20.08 11.775C20.4168 10.5527 20.584 9.28987 20.577 8.02201C20.577 7.77301 22.087 5.25001 22.395 4.00901V4.01001Z"
    stroke="currentColor" stroke-width="2" stroke-linecap="round" stroke-linejoin="round" />
</svg>