<svg width="25" height="25" viewBox="0 0 25 25" fill="none" xmlns="http://www.w3.org/2000/svg">
  <path
    d="M17.9025 11.1084C17.6983 11.1084 17.5024 11.0273 17.358 10.8829C17.2136 10.7385 17.1325 10.5427 17.1325 10.3384C17.1325 9.96845 16.7625 9.19845 16.1425 8.52845C15.5325 7.87845 14.8625 7.49845 14.3025 7.49845C14.0983 7.49845 13.9024 7.41732 13.758 7.27292C13.6136 7.12851 13.5325 6.93266 13.5325 6.72845C13.5325 6.30845 13.8825 5.95845 14.3025 5.95845C15.3025 5.95845 16.3525 6.49845 17.2725 7.46845C18.1325 8.37845 18.6825 9.50845 18.6825 10.3284C18.6825 10.7584 18.3325 11.1084 17.9025 11.1084ZM21.5125 11.1064C21.3083 11.1064 21.1124 11.0253 20.968 10.8809C20.8236 10.7365 20.7425 10.5407 20.7425 10.3364C20.7425 6.78644 17.8525 3.90645 14.3125 3.90645C14.1083 3.90645 13.9124 3.82532 13.768 3.68092C13.6236 3.53651 13.5425 3.34066 13.5425 3.13645C13.5425 2.71645 13.8825 2.35645 14.3025 2.35645C18.7025 2.35645 22.2825 5.93644 22.2825 10.3364C22.2825 10.7564 21.9325 11.1064 21.5125 11.1064Z"
    fill="white" />
  <path opacity="0.4"
    d="M12.0725 14.5664L8.80247 17.8364C8.44247 17.5164 8.09247 17.1864 7.75247 16.8464C6.74124 15.8285 5.80857 14.7353 4.96247 13.5764C4.14247 12.4364 3.48247 11.2964 3.00247 10.1664C2.52247 9.02645 2.28247 7.93645 2.28247 6.89645C2.28247 6.21645 2.40247 5.56645 2.64247 4.96645C2.88247 4.35645 3.26247 3.79645 3.79247 3.29645C4.43247 2.66645 5.13247 2.35645 5.87247 2.35645C6.15247 2.35645 6.43247 2.41645 6.68247 2.53645C6.94247 2.65645 7.17247 2.83645 7.35247 3.09645L9.67247 6.36645C9.85247 6.61645 9.98247 6.84645 10.0725 7.06645C10.1625 7.27645 10.2125 7.48645 10.2125 7.67645C10.2125 7.91645 10.1425 8.15645 10.0025 8.38645C9.87247 8.61645 9.68247 8.85645 9.44247 9.09645L8.68247 9.88645C8.57247 9.99645 8.52247 10.1264 8.52247 10.2864C8.52247 10.3664 8.53247 10.4364 8.55247 10.5164C8.58247 10.5964 8.61247 10.6564 8.63247 10.7164C8.81247 11.0464 9.12247 11.4764 9.56247 11.9964C10.0125 12.5164 10.4925 13.0464 11.0125 13.5764C11.3725 13.9264 11.7225 14.2664 12.0725 14.5664Z"
    fill="white" />
  <path
    d="M22.2526 18.6864C22.2512 19.0638 22.1658 19.4362 22.0026 19.7764C21.8326 20.1364 21.6126 20.4764 21.3226 20.7964C20.8326 21.3364 20.2926 21.7264 19.6826 21.9764C19.6726 21.9764 19.6626 21.9864 19.6526 21.9864C19.0626 22.2264 18.4226 22.3564 17.7326 22.3564C16.7126 22.3564 15.6226 22.1164 14.4726 21.6264C13.3226 21.1364 12.1726 20.4764 11.0326 19.6464C10.6426 19.3564 10.2526 19.0664 9.88257 18.7564L13.1526 15.4864C13.4326 15.6964 13.6826 15.8564 13.8926 15.9664C13.9426 15.9864 14.0026 16.0164 14.0726 16.0464C14.1526 16.0764 14.2326 16.0864 14.3226 16.0864C14.4926 16.0864 14.6226 16.0264 14.7326 15.9164L15.4926 15.1664C15.7426 14.9164 15.9826 14.7264 16.2126 14.6064C16.4426 14.4664 16.6726 14.3964 16.9226 14.3964C17.1126 14.3964 17.3126 14.4364 17.5326 14.5264C17.7526 14.6164 17.9826 14.7464 18.2326 14.9164L21.5426 17.2664C21.8026 17.4464 21.9826 17.6564 22.0926 17.9064C22.1926 18.1564 22.2526 18.4064 22.2526 18.6864Z"
    fill="white" />
</svg>