<svg width="25" height="25" viewBox="0 0 25 25" fill="none" xmlns="http://www.w3.org/2000/svg">
  <path opacity="0.4"
    d="M10.5007 3.17642L3.57069 8.72642C2.79069 9.34642 2.29068 10.6564 2.46068 11.6364L3.79068 19.5964C4.03068 21.0164 5.39069 22.1664 6.83069 22.1664H18.0307C19.4607 22.1664 20.8307 21.0064 21.0707 19.5964L22.4007 11.6364C22.5607 10.6564 22.0607 9.34642 21.2907 8.72642L14.3607 3.18642C13.2907 2.32642 11.5607 2.32642 10.5007 3.17642Z"
    fill="white" />
  <path
    d="M12.4307 15.8564C13.0937 15.8564 13.7296 15.5931 14.1984 15.1242C14.6673 14.6554 14.9307 14.0195 14.9307 13.3564C14.9307 12.6934 14.6673 12.0575 14.1984 11.5887C13.7296 11.1198 13.0937 10.8564 12.4307 10.8564C11.7676 10.8564 11.1317 11.1198 10.6629 11.5887C10.1941 12.0575 9.93066 12.6934 9.93066 13.3564C9.93066 14.0195 10.1941 14.6554 10.6629 15.1242C11.1317 15.5931 11.7676 15.8564 12.4307 15.8564Z"
    fill="white" />
</svg>