<svg width="25" height="25" viewBox="0 0 25 25" fill="none" xmlns="http://www.w3.org/2000/svg">
  <path
    d="M20.3565 7.85547L18.8665 9.34547L15.8665 6.34547L17.3565 4.85547C17.7765 4.43547 18.3165 4.23547 18.8565 4.23547C19.3965 4.23547 19.9365 4.43547 20.3565 4.85547C21.1865 5.68547 21.1865 7.02547 20.3565 7.85547Z"
    fill="white" />
  <path opacity="0.4"
    d="M18.8664 9.34442L7.35639 20.8544C6.52639 21.6844 5.18639 21.6844 4.35639 20.8544C3.52639 20.0244 3.52639 18.6844 4.35639 17.8544L15.8664 6.34442L18.8664 9.34442Z"
    fill="white" />
  <path
    d="M10.8065 3.85646L11.2165 2.46646C11.2565 2.33646 11.2165 2.19646 11.1265 2.09646C11.0365 1.99646 10.8765 1.95646 10.7465 1.99646L9.35646 2.40646L7.96646 1.99646C7.83646 1.95646 7.69646 1.99646 7.59646 2.08646C7.49646 2.18646 7.46646 2.32646 7.50646 2.45646L7.90646 3.85646L7.49646 5.24646C7.45646 5.37646 7.49646 5.51646 7.58646 5.61646C7.68646 5.71646 7.82646 5.74646 7.95646 5.70646L9.35646 5.30646L10.7465 5.71646C10.7865 5.72646 10.8165 5.73646 10.8565 5.73646C10.9565 5.73646 11.0465 5.69646 11.1265 5.62646C11.2265 5.52646 11.2565 5.38646 11.2165 5.25646L10.8065 3.85646ZM6.80646 9.85646L7.21646 8.46646C7.25646 8.33646 7.21646 8.19646 7.12646 8.09646C7.02646 7.99646 6.88646 7.96646 6.75646 8.00646L5.35646 8.40646L3.96646 7.99646C3.83646 7.95646 3.69646 7.99646 3.59646 8.08646C3.49646 8.18646 3.46646 8.32646 3.50646 8.45646L3.90646 9.85646L3.49646 11.2465C3.45646 11.3765 3.49646 11.5165 3.58646 11.6165C3.68646 11.7165 3.82646 11.7465 3.95646 11.7065L5.34646 11.2965L6.73646 11.7065C6.76646 11.7165 6.80646 11.7165 6.84646 11.7165C6.94646 11.7165 7.03646 11.6765 7.11646 11.6065C7.21646 11.5065 7.24646 11.3665 7.20646 11.2365L6.80646 9.85646ZM21.8065 14.8565L22.2165 13.4665C22.2565 13.3365 22.2165 13.1965 22.1265 13.0965C22.0265 12.9965 21.8865 12.9665 21.7565 13.0065L20.3665 13.4165L18.9765 13.0065C18.8465 12.9665 18.7065 13.0065 18.6065 13.0965C18.5065 13.1965 18.4765 13.3365 18.5165 13.4665L18.9265 14.8565L18.5165 16.2465C18.4765 16.3765 18.5165 16.5165 18.6065 16.6165C18.7065 16.7165 18.8465 16.7465 18.9765 16.7065L20.3665 16.2965L21.7565 16.7065C21.7865 16.7165 21.8265 16.7165 21.8665 16.7165C21.9665 16.7165 22.0565 16.6765 22.1365 16.6065C22.2365 16.5065 22.2665 16.3665 22.2265 16.2365L21.8065 14.8565Z"
    fill="white" />
</svg>