<svg width="25" height="25" viewBox="0 0 25 25" fill="none" xmlns="http://www.w3.org/2000/svg">
  <path
    d="M21.8546 11.7064L18.8446 13.6064L12.7646 7.52644L14.6546 4.51644C15.5346 3.12644 17.3046 3.06644 18.5946 4.35644L22.0046 7.76644C23.2246 8.99644 23.1446 10.8864 21.8546 11.7064Z"
    fill="white" />
  <path opacity="0.4"
    d="M16.1437 21.6464L6.78365 22.7464C6.13365 22.8264 5.55365 22.7264 5.06365 22.4864C4.54558 22.2333 4.12679 21.8145 3.87365 21.2964C3.63365 20.8064 3.54365 20.2364 3.61365 19.5964L4.71787 9.96057C5.0362 8.26017 6.08652 7.52645 8.84962 7.52645L12.7637 7.52643L18.8437 13.6164L19.1037 18.0364C19.3537 20.5164 18.4937 21.3764 16.1437 21.6464Z"
    fill="white" />
  <path
    d="M8.92354 18.6375L5.07354 22.4875C4.54354 22.2275 4.14354 21.8275 3.88354 21.2975L7.73355 17.4475C8.07355 17.1175 8.60354 17.1175 8.92354 17.4475C9.25354 17.7775 9.25354 18.3075 8.92354 18.6375Z"
    fill="white" />
</svg>
