<svg width="25" height="25" viewBox="0 0 25 25" fill="none" xmlns="http://www.w3.org/2000/svg">
  <path opacity="0.4"
    d="M18.0997 8.12645C18.03 8.11645 17.9593 8.11645 17.8897 8.12645C17.1428 8.10201 16.4348 7.78764 15.9159 7.24999C15.3969 6.71235 15.1077 5.9937 15.1097 5.24645C15.1097 3.65645 16.3997 2.35645 17.9997 2.35645C19.5897 2.35645 20.8897 3.64645 20.8897 5.24645C20.8875 5.99417 20.5957 6.71197 20.0754 7.24902C19.5551 7.78608 18.847 8.10058 18.0997 8.12645ZM21.3617 15.0564C20.2417 15.8064 18.6717 16.0864 17.2217 15.8964C17.6017 15.0764 17.8017 14.1664 17.8117 13.2064C17.8117 12.2064 17.5917 11.2564 17.1717 10.4264C18.6517 10.2264 20.2217 10.5064 21.3517 11.2564C22.9317 12.2964 22.9317 14.0064 21.3617 15.0564ZM7.00767 8.12645C7.07767 8.11645 7.14767 8.11645 7.21767 8.12645C7.96454 8.10201 8.67251 7.78764 9.19149 7.24999C9.71047 6.71235 9.99963 5.9937 9.99767 5.24645C9.99767 3.65645 8.70767 2.35645 7.10767 2.35645C5.51767 2.35645 4.21767 3.64645 4.21767 5.24645C4.21981 5.99417 4.51168 6.71197 5.03195 7.24902C5.55222 7.78608 6.26039 8.10058 7.00767 8.12645ZM7.12067 13.2064C7.12067 14.1764 7.33067 15.0964 7.71067 15.9264C6.30067 16.0764 4.83067 15.7764 3.75067 15.0664C2.17067 14.0164 2.17067 12.3064 3.75067 11.2564C4.82067 10.5364 6.33067 10.2464 7.75067 10.4064C7.34067 11.2464 7.12067 12.1964 7.12067 13.2064Z"
    fill="white" />
  <path
    d="M12.6896 16.2264C12.6033 16.2164 12.516 16.2164 12.4296 16.2264C11.5405 16.1966 10.6978 15.8219 10.0801 15.1817C9.46227 14.5415 9.11783 13.6861 9.11963 12.7964C9.11963 10.8964 10.6496 9.35645 12.5596 9.35645C14.4596 9.35645 15.9996 10.8964 15.9996 12.7964C15.9996 14.6564 14.5396 16.1664 12.6896 16.2264ZM9.43963 18.2964C7.92963 19.3064 7.92963 20.9664 9.43963 21.9664C11.1596 23.1164 13.9796 23.1164 15.6996 21.9664C17.2096 20.9564 17.2096 19.2964 15.6996 18.2964C13.9896 17.1464 11.1696 17.1464 9.43963 18.2964Z"
    fill="white" />
</svg>